<?xml version="1.0" encoding="utf-8"?>
<!-- Svg Vector Icons : http://www.onlinewebfonts.com/icon -->
<!DOCTYPE svg PUBLIC "-//W3C//DTD SVG 1.1//EN" "http://www.w3.org/Graphics/SVG/1.1/DTD/svg11.dtd">
<svg version="1.1" xmlns="http://www.w3.org/2000/svg" xmlns:xlink="http://www.w3.org/1999/xlink" x="0px" y="0px" viewBox="0 0 256 256" enable-background="new 0 0 256 256" xml:space="preserve">
<metadata> Svg Vector Icons : http://www.onlinewebfonts.com/icon </metadata>
<g><g><path fill="#000000" d="M83.6,140.3c-0.1,0.2-0.3,0.4-0.4,0.7l-11.9,43.5c-0.7,2.5,0,5.3,1.9,7.2c1.4,1.4,3.3,2.1,5.2,2.1c0.6,0,1.3-0.1,2-0.2l43.2-11.8c0.1,0,0.1,0.1,0.1,0.1c0.5,0,1-0.2,1.3-0.6L240.7,65.7c3.4-3.4,5.3-8.1,5.3-13.2c0-5.8-2.5-11.5-6.7-15.8l-10.9-10.9c-4.3-4.3-10.1-6.7-15.8-6.7c-5.1,0-9.8,1.9-13.2,5.3L83.8,139.9C83.6,140,83.6,140.2,83.6,140.3 M229.4,54.4l-11.5,11.5L199.3,47l11.3-11.3c1.8-1.8,5.2-1.5,7.3,0.5l10.9,10.9c1.1,1.1,1.8,2.6,1.8,4.1C230.6,52.5,230.2,53.6,229.4,54.4 M104.1,142.1l83.4-83.4l18.6,18.9l-83.2,83.2L104.1,142.1z M88.9,176l6-22.1l16.1,16.1L88.9,176z M236.7,100.2c-4.4,0-8,3.6-8,8v107.7c0,5.7-4.6,10.2-10.3,10.2H36.2c-5.7,0-10.3-4.6-10.3-10.2V40.1c0-5.7,4.6-10.3,10.3-10.3h117.4c4.4,0,8-3.6,8-8c0-4.4-3.6-8-8-8H35c-13.8,0-25,11.2-25,25v178.3c0,13.8,11.2,25,25,25h184.7c13.8,0,25-11.2,25-25v-109C244.6,103.8,241,100.2,236.7,100.2"/></g></g>
</svg>