<?xml version="1.0" encoding="utf-8"?>
<!-- Svg Vector Icons : http://www.onlinewebfonts.com/icon -->
<!DOCTYPE svg PUBLIC "-//W3C//DTD SVG 1.1//EN" "http://www.w3.org/Graphics/SVG/1.1/DTD/svg11.dtd">
<svg version="1.1" xmlns="http://www.w3.org/2000/svg" xmlns:xlink="http://www.w3.org/1999/xlink" x="0px" y="0px" viewBox="0 0 256 256" enable-background="new 0 0 256 256" xml:space="preserve">
<metadata> Svg Vector Icons : http://www.onlinewebfonts.com/icon </metadata>
<g><g><path fill="#000000" d="M128,10C62.8,10,10,62.8,10,128c0,65.2,52.8,118,118,118c65.2,0,118-52.9,118-118C246,62.8,193.2,10,128,10z M128,226.4c-54.3,0-98.3-44-98.3-98.4c0-54.3,44-98.4,98.3-98.4c54.3,0,98.3,44,98.3,98.4C226.3,182.3,182.3,226.4,128,226.4z M118.2,187h19.7v-19.4l-19.7-0.2L118.2,187z M157,74.6c-8.4-6.1-17.5-8.8-30.2-8.2c-6.9,0.3-16.2,2.5-22.7,7.1c-11.5,7.9-15,18.7-15.6,34.8h19.8c0-4.7,1.4-11.1,4.1-15.4c2.7-4.3,7.4-7.3,15.4-8c8.3-0.7,13.7,2.2,16.2,4.4c6.1,5.5,3.7,19.5-1.5,25c-2.2,2.5-11.7,9.8-11.7,9.8c-6.1,4.7-8.9,8.9-10.4,12.6c-1.5,3.7-2.1,11.5-2.4,21h19.9l0.2-2.3c0,0-2-13.7,5.3-18.4l9.4-6.2c6.1-4.7,7.7-6.5,9.9-9.5c3.7-5,6.4-11.2,6.4-18.5C169.1,90.6,165.4,80.7,157,74.6z"/></g></g>
</svg>